<svg width="48.000000" height="48.000000" viewBox="0 0 48 48" fill="none" xmlns="http://www.w3.org/2000/svg" xmlns:xlink="http://www.w3.org/1999/xlink">
	<desc>
			Created with Pixso.
	</desc>
	<defs/>
	<path id="Vector" d="M33 17.81C33 16.32 31.67 15 30.18 15L18.81 15C17.32 15 16 16.32 16 17.81L16 29.18C16 30.67 17.32 32 18.81 32L24.54 32L24.54 25.57L22.42 25.57L22.42 22.75L24.54 22.75L24.54 21.6C24.54 19.66 25.95 17.99 27.71 17.99L30 17.99L30 20.81L27.71 20.81C27.45 20.81 27.18 21.07 27.18 21.6L27.18 22.75L30 22.75L30 25.57L27.18 25.57L27.18 32L30.18 32C31.67 32 33 30.67 33 29.18L33 17.81Z" fill="#4878A6" fill-opacity="1.000000" fill-rule="nonzero"/>
</svg>
