<svg width="48.000000" height="48.000000" viewBox="0 0 48 48" fill="none" xmlns="http://www.w3.org/2000/svg" xmlns:xlink="http://www.w3.org/1999/xlink">
	<desc>
			Created with Pixso.
	</desc>
	<defs/>
	<path id="Vector" d="M30.58 16L18.41 16C17.04 16 16 17.04 16 18.41L16 30.58C16 31.95 17.04 33 18.41 33L30.58 33C31.95 33 33 31.95 33 30.58L33 18.41C33 17.04 31.95 16 30.58 16ZM24.5 29.59C27.31 29.59 29.59 27.37 29.59 24.69C29.59 24.23 29.53 23.71 29.4 23.32L30.84 23.32L30.84 30.25C30.84 30.58 30.58 30.9 30.18 30.9L18.81 30.9C18.48 30.9 18.15 30.64 18.15 30.25L18.15 23.25L19.66 23.25C19.53 23.71 19.46 24.17 19.46 24.63C19.4 27.37 21.68 29.59 24.5 29.59ZM24.5 27.63C22.66 27.63 21.23 26.2 21.23 24.43C21.23 22.66 22.66 21.23 24.5 21.23C26.33 21.23 27.76 22.66 27.76 24.43C27.76 26.26 26.33 27.63 24.5 27.63ZM30.77 20.64C30.77 21.03 30.44 21.36 30.05 21.36L28.22 21.36C27.83 21.36 27.5 21.03 27.5 20.64L27.5 18.87C27.5 18.48 27.83 18.15 28.22 18.15L30.05 18.15C30.44 18.15 30.77 18.48 30.77 18.87L30.77 20.64Z" fill="#4878A6" fill-opacity="1.000000" fill-rule="nonzero"/>
</svg>
