<?xml version="1.0" encoding="utf-8"?><svg viewBox="0 0 48 48" xmlns="http://www.w3.org/2000/svg" xmlns:xlink="http://www.w3.org/1999/xlink"><style>:root>svg{display:none}:root>svg:target{display:block}</style><svg fill="none" viewBox="0 0 48 48" id="facebook" xmlns="http://www.w3.org/2000/svg"><path d="M33 17.81c0-1.49-1.33-2.81-2.82-2.81H18.81C17.32 15 16 16.32 16 17.81v11.37c0 1.49 1.32 2.82 2.81 2.82h5.73v-6.43h-2.12v-2.82h2.12V21.6c0-1.94 1.41-3.61 3.17-3.61H30v2.82h-2.29c-.26 0-.53.26-.53.79v1.15H30v2.82h-2.82V32h3c1.49 0 2.82-1.33 2.82-2.82V17.81Z" fill="#4878A6"/></svg><svg fill="none" viewBox="0 0 48 48" id="instagram" xmlns="http://www.w3.org/2000/svg"><path d="M30.58 16H18.41C17.04 16 16 17.04 16 18.41v12.17c0 1.37 1.04 2.42 2.41 2.42h12.17c1.37 0 2.42-1.05 2.42-2.42V18.41c0-1.37-1.05-2.41-2.42-2.41ZM24.5 29.59c2.81 0 5.09-2.22 5.09-4.9 0-.46-.06-.98-.19-1.37h1.44v6.93c0 .33-.26.65-.66.65H18.81c-.33 0-.66-.26-.66-.65v-7h1.51c-.13.46-.2.92-.2 1.38-.06 2.74 2.22 4.96 5.04 4.96Zm0-1.96c-1.84 0-3.27-1.43-3.27-3.2 0-1.77 1.43-3.2 3.27-3.2 1.83 0 3.26 1.43 3.26 3.2 0 1.83-1.43 3.2-3.26 3.2Zm6.27-6.99c0 .39-.33.72-.72.72h-1.83a.73.73 0 0 1-.72-.72v-1.77c0-.39.33-.72.72-.72h1.83c.39 0 .72.33.72.72v1.77Z" fill="#4878A6"/></svg><svg fill="none" viewBox="0 0 48 48" id="twitter" xmlns="http://www.w3.org/2000/svg"><path d="M33.59 17.9c-.69.3-1.5.5-2.29.6.79-.5 1.5-1.3 1.79-2.21-.79.5-1.59.8-2.59 1-.7-.79-1.81-1.29-2.91-1.29-2.19 0-4 1.79-4 4 0 .29 0 .59.1.9-3.29-.2-6.29-1.81-8.29-4.2-.31.59-.5 1.3-.5 2 0 1.39.69 2.59 1.79 3.3-.69 0-1.29-.21-1.79-.5 0 1.9 1.4 3.59 3.19 3.9-.29.1-.69.1-1.09.1-.31 0-.5 0-.81-.1.5 1.6 2 2.8 3.81 2.8a8.035 8.035 0 0 1-5 1.7c-.31 0-.6 0-1-.11 1.8 1.11 3.9 1.8 6.19 1.8 7.4 0 11.4-6.09 11.4-11.39v-.5c.81-.3 1.5-1 2-1.8Z" fill="#4878A6"/></svg><svg fill="none" viewBox="0 0 48 48" id="vk" xmlns="http://www.w3.org/2000/svg"><path d="M33.8 29.11c0-.08-.08-.08-.08-.17-.33-.66-1.08-1.49-2.08-2.4-.5-.42-.74-.75-.91-.92-.25-.33-.25-.58-.17-.91.09-.25.42-.66 1-1.41.33-.42.5-.67.75-.91 1.24-1.67 1.82-2.74 1.66-3.24l-.09-.09c-.08-.08-.16-.16-.33-.16-.16-.08-.41-.08-.66 0h-3.74l-.08.08c-.08.08-.08.08-.08.17-.34.91-.75 1.66-1.17 2.49-.25.41-.49.83-.74 1.16-.25.33-.42.58-.58.75-.17.16-.34.25-.42.41-.08.09-.25.17-.25.09-.08 0-.17 0-.17-.09l-.25-.25c-.08-.08-.08-.25-.16-.41v-4.15c0-.09-.08-.25-.08-.33l-.25-.25c-.09-.09-.25-.09-.34-.17-.41-.08-.91-.17-1.49-.17-1.33 0-2.24.09-2.57.25-.17.09-.34.17-.42.34-.16.16-.16.24-.08.24.41.09.75.25.91.5l.08.17c.09.08.09.25.17.5.08.25.08.49.08.83v1.33c0 .41-.08.66-.08.91s-.08.41-.17.5c-.08.16-.08.25-.16.25 0 0 0 .08-.08.08-.09 0-.17.08-.34.08-.08 0-.25-.08-.33-.16-.16-.09-.33-.25-.41-.42-.17-.17-.34-.41-.5-.75-.17-.33-.42-.66-.58-1.16l-.17-.33c-.08-.17-.25-.5-.41-.91-.17-.42-.34-.75-.5-1.17-.09-.16-.17-.25-.25-.33h-.08s-.09-.08-.17-.08c-.08 0-.17-.08-.25-.08h-2.99c-.33 0-.5.08-.58.16l-.08.08v.17c0 .08 0 .17.08.33.42 1 .91 2 1.41 2.99.5.91 1 1.74 1.33 2.33.42.58.75 1.16 1.16 1.66.42.5.67.83.75.99.17.17.25.25.33.34l.25.24c.17.17.42.42.75.67.33.25.75.5 1.16.75.42.24.91.41 1.41.58.58.16 1.08.25 1.58.16h1.24c.25 0 .42-.08.59-.25l.08-.08c0-.08.08-.08.08-.17v-.33c0-.33 0-.58.08-.83.09-.25.09-.41.17-.58.08-.16.17-.25.25-.33l.17-.17h.08c.17-.08.42 0 .58.17.25.17.5.41.67.66.16.25.41.5.74.83.33.34.58.58.75.67l.25.16c.16.09.33.17.58.25.25.09.42.09.58.09l2.82-.09c.25 0 .5-.08.67-.16.16-.09.25-.17.25-.34v-.33c-.17-.16-.17-.25-.17-.33Z" fill="#2A5275"/></svg></svg>