<svg width="48.000000" height="48.000000" viewBox="0 0 48 48" fill="none" xmlns="http://www.w3.org/2000/svg" xmlns:xlink="http://www.w3.org/1999/xlink">
	<desc>
			Created with Pixso.
	</desc>
	<defs/>
	<path id="Vector" d="M33.59 17.9C32.9 18.2 32.09 18.4 31.3 18.5C32.09 18 32.8 17.2 33.09 16.29C32.3 16.79 31.5 17.09 30.5 17.29C29.8 16.5 28.69 16 27.59 16C25.4 16 23.59 17.79 23.59 20C23.59 20.29 23.59 20.59 23.69 20.9C20.4 20.7 17.4 19.09 15.4 16.7C15.09 17.29 14.9 18 14.9 18.7C14.9 20.09 15.59 21.29 16.69 22C16 22 15.4 21.79 14.9 21.5C14.9 23.4 16.3 25.09 18.09 25.4C17.8 25.5 17.4 25.5 17 25.5C16.69 25.5 16.5 25.5 16.19 25.4C16.69 27 18.19 28.2 20 28.2C18.59 29.29 16.9 29.9 15 29.9C14.69 29.9 14.4 29.9 14 29.79C15.8 30.9 17.9 31.59 20.19 31.59C27.59 31.59 31.59 25.5 31.59 20.2L31.59 19.7C32.4 19.4 33.09 18.7 33.59 17.9Z" fill="#4878A6" fill-opacity="1.000000" fill-rule="nonzero"/>
</svg>
