<svg width="48.000000" height="48.000000" viewBox="0 0 48 48" fill="none" xmlns="http://www.w3.org/2000/svg" xmlns:xlink="http://www.w3.org/1999/xlink">
	<desc>
			Created with Pixso.
	</desc>
	<defs/>
	<path id="Vector" d="M33.8 29.11C33.8 29.03 33.72 29.03 33.72 28.94C33.39 28.28 32.64 27.45 31.64 26.54C31.14 26.12 30.9 25.79 30.73 25.62C30.48 25.29 30.48 25.04 30.56 24.71C30.65 24.46 30.98 24.05 31.56 23.3C31.89 22.88 32.06 22.63 32.31 22.39C33.55 20.72 34.13 19.65 33.97 19.15L33.88 19.06C33.8 18.98 33.72 18.9 33.55 18.9C33.39 18.82 33.14 18.82 32.89 18.9L29.73 18.9C29.65 18.9 29.65 18.9 29.48 18.9C29.4 18.9 29.32 18.9 29.32 18.9L29.24 18.9L29.15 18.9L29.07 18.98C28.99 19.06 28.99 19.06 28.99 19.15C28.65 20.06 28.24 20.81 27.82 21.64C27.57 22.05 27.33 22.47 27.08 22.8C26.83 23.13 26.66 23.38 26.5 23.55C26.33 23.71 26.16 23.8 26.08 23.96C26 24.05 25.83 24.13 25.83 24.05C25.75 24.05 25.66 24.05 25.66 23.96C25.58 23.88 25.5 23.8 25.41 23.71C25.33 23.63 25.33 23.46 25.25 23.3C25.25 23.13 25.25 22.97 25.25 22.88C25.25 22.8 25.25 22.55 25.25 22.39C25.25 22.14 25.25 21.97 25.25 21.89C25.25 21.64 25.25 21.31 25.25 20.97C25.25 20.64 25.25 20.39 25.25 20.23C25.25 20.06 25.25 19.81 25.25 19.65C25.25 19.4 25.25 19.23 25.25 19.15C25.25 19.06 25.17 18.9 25.17 18.82C25.08 18.73 25 18.65 24.92 18.57C24.83 18.48 24.67 18.48 24.58 18.4C24.17 18.32 23.67 18.23 23.09 18.23C21.76 18.23 20.85 18.32 20.52 18.48C20.35 18.57 20.18 18.65 20.1 18.82C19.94 18.98 19.94 19.06 20.02 19.06C20.43 19.15 20.77 19.31 20.93 19.56L21.01 19.73C21.1 19.81 21.1 19.98 21.18 20.23C21.26 20.48 21.26 20.72 21.26 21.06C21.26 21.56 21.26 22.05 21.26 22.39C21.26 22.8 21.18 23.05 21.18 23.3C21.18 23.55 21.1 23.71 21.01 23.8C20.93 23.96 20.93 24.05 20.85 24.05C20.85 24.05 20.85 24.13 20.77 24.13C20.68 24.13 20.6 24.21 20.43 24.21C20.35 24.21 20.18 24.13 20.1 24.05C19.94 23.96 19.77 23.8 19.69 23.63C19.52 23.46 19.35 23.22 19.19 22.88C19.02 22.55 18.77 22.22 18.61 21.72L18.44 21.39C18.36 21.22 18.19 20.89 18.03 20.48C17.86 20.06 17.69 19.73 17.53 19.31C17.44 19.15 17.36 19.06 17.28 18.98L17.2 18.98C17.2 18.98 17.11 18.9 17.03 18.9C16.95 18.9 16.86 18.82 16.78 18.82L13.79 18.82C13.46 18.82 13.29 18.9 13.21 18.98L13.13 19.06C13.13 19.06 13.13 19.15 13.13 19.23C13.13 19.31 13.13 19.4 13.21 19.56C13.63 20.56 14.12 21.56 14.62 22.55C15.12 23.46 15.62 24.29 15.95 24.88C16.37 25.46 16.7 26.04 17.11 26.54C17.53 27.04 17.78 27.37 17.86 27.53C18.03 27.7 18.11 27.78 18.19 27.87L18.44 28.11C18.61 28.28 18.86 28.53 19.19 28.78C19.52 29.03 19.94 29.28 20.35 29.53C20.77 29.77 21.26 29.94 21.76 30.11C22.34 30.27 22.84 30.36 23.34 30.27L24.58 30.27C24.83 30.27 25 30.19 25.17 30.02L25.25 29.94C25.25 29.86 25.33 29.86 25.33 29.77C25.33 29.69 25.33 29.61 25.33 29.44C25.33 29.11 25.33 28.86 25.41 28.61C25.5 28.36 25.5 28.2 25.58 28.03C25.66 27.87 25.75 27.78 25.83 27.7C25.91 27.62 26 27.53 26 27.53L26.08 27.53C26.25 27.45 26.5 27.53 26.66 27.7C26.91 27.87 27.16 28.11 27.33 28.36C27.49 28.61 27.74 28.86 28.07 29.19C28.4 29.53 28.65 29.77 28.82 29.86L29.07 30.02C29.23 30.11 29.4 30.19 29.65 30.27C29.9 30.36 30.07 30.36 30.23 30.36L33.05 30.27C33.3 30.27 33.55 30.19 33.72 30.11C33.88 30.02 33.97 29.94 33.97 29.77C33.97 29.69 33.97 29.53 33.97 29.44C33.8 29.28 33.8 29.19 33.8 29.11Z" fill="#2A5275" fill-opacity="1.000000" fill-rule="nonzero"/>
</svg>
