<svg width="99.000000" height="19.839844" viewBox="0 0 99 19.8398" fill="none" xmlns="http://www.w3.org/2000/svg" xmlns:xlink="http://www.w3.org/1999/xlink">
	<desc>
			Created with Pixso.
	</desc>
	<defs/>
	<path id="Все товары" d="M8.16 5.21Q7.03 4.57 4.86 4.57L1.51 4.57L1.51 16L5.61 16Q7.47 16 8.55 15.14C9.28 14.57 9.64 13.77 9.64 12.73Q9.64 11.83 9.32 11.28C9.11 10.91 8.82 10.63 8.45 10.43C8.08 10.23 7.67 10.09 7.23 10.01L7.23 9.93C7.89 9.82 8.4 9.54 8.75 9.09C9.11 8.65 9.29 8.09 9.29 7.42Q9.29 6.35 8.77 5.71Q8.52 5.41 8.16 5.21ZM7 8.91C6.66 9.2 6.04 9.34 5.15 9.34L3.24 9.34L3.24 6.03L4.96 6.03Q6.28 6.03 6.89 6.41C7.3 6.66 7.5 7.06 7.5 7.63C7.5 8.19 7.33 8.62 7 8.91ZM12.93 15.51Q13.9 16.16 15.29 16.16C15.82 16.16 16.26 16.11 16.62 16.03Q17.13 15.91 17.57 15.66Q17.6 15.64 17.63 15.63L17.63 14.16C17.32 14.32 16.98 14.46 16.61 14.57C16.24 14.68 15.82 14.73 15.34 14.73Q14.56 14.73 14.05 14.36Q13.82 14.2 13.64 13.96C13.26 13.45 13.07 12.7 13.07 11.72Q13.07 9.78 14 9.06Q14.54 8.65 15.4 8.65C15.7 8.65 16.02 8.69 16.35 8.78C16.69 8.86 17.01 8.97 17.31 9.08L17.82 7.71C17.54 7.58 17.19 7.46 16.77 7.36Q16.14 7.21 15.42 7.21Q14.23 7.21 13.3 7.68Q13.04 7.82 12.8 8Q12.23 8.44 11.85 9.15C11.5 9.81 11.32 10.67 11.32 11.74Q11.32 14.03 12.41 15.09Q12.65 15.33 12.93 15.51ZM25.19 7.8Q24.32 7.21 23.05 7.21Q21.98 7.21 21.16 7.66Q21.08 7.7 21.01 7.75C20.43 8.11 19.98 8.62 19.65 9.29C19.33 9.96 19.16 10.79 19.16 11.76Q19.16 13.19 19.7 14.18Q20.03 14.79 20.53 15.21Q20.83 15.47 21.19 15.66C21.82 15.99 22.56 16.16 23.4 16.16Q24.32 16.16 24.97 16.01C25.41 15.91 25.85 15.77 26.28 15.58L26.28 14.17Q25.6 14.48 24.95 14.63C24.52 14.73 24.02 14.78 23.47 14.78Q22.48 14.78 21.86 14.31Q21.72 14.2 21.6 14.08C21.16 13.61 20.93 12.93 20.91 12.04L26.7 12.04L26.7 11.12Q26.7 9.49 25.91 8.48Q25.82 8.37 25.72 8.26Q25.48 8 25.19 7.8ZM47.37 14.99C48.11 14.21 48.48 13.1 48.48 11.67C48.48 10.71 48.3 9.9 47.95 9.25C47.61 8.58 47.13 8.08 46.53 7.73Q46.47 7.7 46.42 7.68Q45.56 7.21 44.44 7.21Q43.01 7.21 42.04 7.88Q41.73 8.09 41.46 8.37C40.74 9.14 40.38 10.25 40.38 11.67C40.38 12.63 40.55 13.43 40.9 14.1C41.24 14.77 41.72 15.28 42.32 15.63Q42.43 15.69 42.54 15.75Q43.36 16.16 44.39 16.16Q45.77 16.16 46.73 15.53Q47.08 15.3 47.37 14.99ZM65.86 7.92C65.32 7.45 64.51 7.21 63.43 7.21C62.86 7.21 62.31 7.28 61.78 7.43C61.25 7.57 60.78 7.75 60.38 7.96L60.92 9.19C61.29 9.01 61.68 8.86 62.09 8.73C62.5 8.6 62.92 8.54 63.36 8.54C63.88 8.54 64.28 8.67 64.57 8.93Q65 9.32 65 10.27L65 10.75L63.53 10.8Q61.46 10.86 60.47 11.55C59.81 12 59.48 12.67 59.48 13.55C59.48 14.44 59.74 15.1 60.25 15.52C60.76 15.94 61.41 16.16 62.19 16.16Q63.27 16.16 63.89 15.83C64.3 15.61 64.69 15.26 65.07 14.8L65.13 14.8L65.46 16L66.66 16L66.66 10.16C66.66 9.14 66.39 8.4 65.86 7.92ZM76.08 8.33C75.45 7.58 74.61 7.21 73.58 7.21C72.91 7.21 72.36 7.34 71.95 7.6C71.54 7.85 71.21 8.16 70.97 8.52L70.89 8.52L70.65 7.37L69.27 7.37L69.27 19.83L70.97 19.83L70.97 16.32C70.97 16.11 70.96 15.88 70.94 15.62Q70.91 15.23 70.86 14.94L70.97 14.94Q71.34 15.44 71.95 15.8C72.36 16.04 72.9 16.16 73.56 16.16C74.6 16.16 75.43 15.77 76.07 15.01Q77.04 13.87 77.04 11.67C77.04 10.19 76.72 9.08 76.08 8.33ZM36.54 8.73L39.35 8.73L39.35 7.37L32.06 7.37L32.06 8.73L34.86 8.73L34.86 16L36.54 16L36.54 8.73ZM57.3 10.81C57.61 10.5 57.77 10.08 57.77 9.56C57.77 9.02 57.62 8.59 57.33 8.27C57.04 7.95 56.64 7.72 56.14 7.58C55.64 7.44 55.07 7.37 54.44 7.37L50.62 7.37L50.62 16L54.44 16C55.72 16 56.64 15.76 57.2 15.28Q57.63 14.91 57.84 14.44Q58.04 13.99 58.04 13.45Q58.04 12.77 57.71 12.33Q57.6 12.19 57.46 12.07C57.07 11.75 56.6 11.56 56.04 11.48L56.04 11.42Q56.81 11.28 57.28 10.83Q57.29 10.82 57.3 10.81ZM79.19 7.37L79.19 16L82.78 16C84.01 16 84.89 15.75 85.43 15.27C85.98 14.78 86.25 14.13 86.25 13.32C86.25 12.5 85.97 11.88 85.41 11.47C84.85 11.05 83.98 10.84 82.8 10.84L80.89 10.84L80.89 7.37L79.19 7.37ZM87.63 7.37L87.63 16L89.32 16L89.32 7.37L87.63 7.37ZM21.58 9.12C21.95 8.72 22.44 8.52 23.05 8.52Q23.81 8.52 24.27 8.9Q24.41 9.01 24.51 9.16C24.83 9.58 24.99 10.12 25 10.8L20.94 10.8Q21.03 9.71 21.58 9.12ZM71.48 9.3C71.81 8.84 72.38 8.6 73.18 8.6C73.9 8.6 74.44 8.88 74.78 9.42C75.12 9.96 75.29 10.7 75.29 11.64C75.29 12.57 75.12 13.32 74.78 13.9C74.44 14.48 73.91 14.76 73.21 14.76C72.36 14.76 71.77 14.5 71.45 13.96Q70.97 13.15 70.97 11.66L70.97 11.4C70.98 10.46 71.15 9.76 71.48 9.3ZM42.67 13.95C42.3 13.4 42.12 12.65 42.12 11.67C42.12 10.69 42.3 9.94 42.66 9.41C43.03 8.88 43.61 8.62 44.41 8.62Q45.3 8.62 45.83 9.05Q46.02 9.21 46.17 9.41Q46.73 10.2 46.73 11.67C46.73 12.65 46.54 13.4 46.17 13.95C45.81 14.49 45.22 14.76 44.42 14.76C43.63 14.76 43.04 14.49 42.67 13.95ZM55.88 9.18Q56.04 9.41 56.04 9.76C56.04 10.49 55.39 10.86 54.09 10.86L52.31 10.86L52.31 8.68L54.34 8.68Q55.23 8.68 55.63 8.95Q55.79 9.05 55.88 9.18ZM3.24 14.55L3.24 10.75L5.23 10.75Q6.68 10.75 7.25 11.25Q7.48 11.46 7.62 11.71Q7.82 12.08 7.82 12.57C7.82 13.17 7.63 13.65 7.26 14.01Q6.71 14.55 5.34 14.55L3.24 14.55ZM61.79 12.37C62.17 12.09 62.85 11.93 63.83 11.88L64.98 11.85L64.98 12.6C64.98 13.35 64.76 13.91 64.32 14.28C63.88 14.66 63.33 14.84 62.66 14.84C62.24 14.84 61.89 14.74 61.62 14.54C61.36 14.33 61.23 14.01 61.23 13.56C61.23 13.05 61.42 12.66 61.79 12.37ZM55.76 12.45C56.11 12.65 56.28 12.97 56.28 13.42Q56.28 13.87 56.06 14.16Q55.94 14.32 55.75 14.42C55.4 14.62 54.91 14.71 54.28 14.71L52.31 14.71L52.31 12.16L54.25 12.16Q55.24 12.16 55.76 12.45ZM84.03 14.42Q83.5 14.71 82.65 14.71L80.89 14.71L80.89 12.16L82.65 12.16C83.27 12.16 83.74 12.25 84.07 12.43C84.4 12.61 84.57 12.93 84.57 13.39C84.57 13.88 84.39 14.22 84.03 14.42Z" fill="#2A5275" fill-opacity="1.000000" fill-rule="evenodd"/>
	<path id="Polygon 1" d="M98.68 11.2L93.67 6.5C93.41 6.26 93 6.44 93 6.79L93 16.2C93 16.55 93.41 16.73 93.67 16.49L98.68 11.79C98.85 11.63 98.85 11.36 98.68 11.2Z" fill="#2A5275" fill-opacity="1.000000" fill-rule="evenodd"/>
</svg>
