<svg width="22.000000" height="20.000000" viewBox="0 0 22 20" fill="none" xmlns="http://www.w3.org/2000/svg" xmlns:xlink="http://www.w3.org/1999/xlink">
	<desc>
			Created with Pixso.
	</desc>
	<defs/>
	<path id="Vector (Stroke)" d="M0.09 0.57C0.25 0.22 0.61 0 1 0L21 0C21.38 0 21.74 0.22 21.9 0.57C22.07 0.93 22.01 1.34 21.76 1.64L14 10.82L14 19C14 19.34 13.82 19.66 13.52 19.85C13.23 20.03 12.86 20.04 12.55 19.89L8.55 17.89C8.21 17.72 8 17.37 8 17L8 10.82L0.23 1.64C-0.02 1.34 -0.08 0.93 0.09 0.57ZM3.15 2L9.76 9.81C9.91 9.99 10 10.22 10 10.46L10 16.38L12 17.38L12 10.46C12 10.22 12.08 9.99 12.23 9.81L18.84 2L3.15 2Z" fill="#070C11" fill-opacity="1.000000" fill-rule="evenodd"/>
</svg>
