<svg width="32.000000" height="32.000000" viewBox="0 0 32 32" fill="none" xmlns="http://www.w3.org/2000/svg" xmlns:xlink="http://www.w3.org/1999/xlink">
	<desc>
			Created with Pixso.
	</desc>
	<defs>
		<clipPath id="clip1_131">
			<rect rx="-0.500000" width="31.000000" height="31.000000" transform="translate(0.500000 0.500000)" fill="white" fill-opacity="0"/>
		</clipPath>
	</defs>
	<rect rx="-0.500000" width="31.000000" height="31.000000" transform="translate(0.500000 0.500000)" fill="#FFFFFF" fill-opacity="0"/>
	<g clip-path="url(#clip1_131)">
		<path d="M6 16C6 16.55 5.55 17 5 17C4.44 17 4 16.55 4 16C4 15.44 4.44 15 5 15C5.55 15 6 15.44 6 16Z" fill="#FFFFFF" fill-opacity="1.000000" fill-rule="evenodd"/>
		<path d="M10.27 15L26.72 15C27.42 15 28 15.42 28 15.94L28 16.05C28 16.57 27.42 17 26.72 17L10.27 17C9.57 17 9 16.57 9 16.05L9 15.94C9 15.42 9.57 15 10.27 15Z" fill="#FFFFFF" fill-opacity="1.000000" fill-rule="evenodd"/>
		<path d="M5.25 21L26.74 21C27.43 21 28 21.42 28 21.94L28 22.05C28 22.57 27.43 23 26.74 23L5.25 23C4.56 23 4 22.57 4 22.05L4 21.94C4 21.42 4.56 21 5.25 21Z" fill="#FFFFFF" fill-opacity="1.000000" fill-rule="evenodd"/>
		<path d="M5.25 9L26.74 9C27.43 9 28 9.42 28 9.94L28 10.05C28 10.57 27.43 11 26.74 11L5.25 11C4.56 11 4 10.57 4 10.05L4 9.94C4 9.42 4.56 9 5.25 9Z" fill="#FFFFFF" fill-opacity="1.000000" fill-rule="evenodd"/>
	</g>
</svg>
