<svg width="20.000000" height="18.000000" viewBox="0 0 20 18" fill="none" xmlns="http://www.w3.org/2000/svg" xmlns:xlink="http://www.w3.org/1999/xlink">
	<desc>
			Created with Pixso.
	</desc>
	<defs/>
	<path id="Vector" d="M17 4L16 4L16 3C16 2.2 15.68 1.44 15.12 0.87C14.55 0.31 13.79 0 13 0L3 0C2.2 0 1.44 0.31 0.87 0.87C0.31 1.44 0 2.2 0 3L0 15C0 15.79 0.31 16.55 0.87 17.12C1.44 17.68 2.2 18 3 18L17 18C17.79 18 18.55 17.68 19.12 17.12C19.68 16.55 20 15.79 20 15L20 7C20 6.2 19.68 5.44 19.12 4.87C18.55 4.31 17.79 4 17 4ZM3 2L13 2C13.26 2 13.51 2.1 13.7 2.29C13.89 2.48 14 2.73 14 3L14 4L3 4C2.73 4 2.48 3.89 2.29 3.7C2.1 3.51 2 3.26 2 3C2 2.73 2.1 2.48 2.29 2.29C2.48 2.1 2.73 2 3 2ZM18 12L17 12C16.73 12 16.48 11.89 16.29 11.7C16.1 11.51 16 11.26 16 11C16 10.73 16.1 10.48 16.29 10.29C16.48 10.1 16.73 10 17 10L18 10L18 12ZM18 8L17 8C16.2 8 15.44 8.31 14.87 8.87C14.31 9.44 14 10.2 14 11C14 11.79 14.31 12.55 14.87 13.12C15.44 13.68 16.2 14 17 14L18 14L18 15C18 15.26 17.89 15.51 17.7 15.7C17.51 15.89 17.26 16 17 16L3 16C2.73 16 2.48 15.89 2.29 15.7C2.1 15.51 2 15.26 2 15L2 5.83C2.32 5.94 2.65 6 3 6L17 6C17.26 6 17.51 6.1 17.7 6.29C17.89 6.48 18 6.73 18 7L18 8Z" fill="#070C11" fill-opacity="1.000000" fill-rule="nonzero"/>
</svg>
