<svg width="107.000000" height="36.000000" viewBox="0 0 107 36" fill="none" xmlns="http://www.w3.org/2000/svg" xmlns:xlink="http://www.w3.org/1999/xlink">
	<desc>
			Created with Pixso.
	</desc>
	<defs>
		<clipPath id="clip1_110">
			<rect id="search-icon" rx="-0.500000" width="23.000000" height="23.000000" transform="matrix(-1 0 0 1 35.5 6.5)" fill="white" fill-opacity="0"/>
		</clipPath>
	</defs>
	<rect id="search-icon" rx="-0.500000" width="23.000000" height="23.000000" transform="matrix(-1 0 0 1 35.5 6.5)" fill="#FFFFFF" fill-opacity="0"/>
	<g clip-path="url(#clip1_110)">
		<path id="Vector" d="M24 25C28.41 25 32 21.41 32 17C32 12.58 28.41 9 24 9C19.58 9 16 12.58 16 17C16 21.41 19.58 25 24 25Z" stroke="#838688" stroke-opacity="1.000000" stroke-width="2.000000" stroke-linejoin="round"/>
		<path id="Vector" d="M18.34 22.65L14 22.65" stroke="#838688" stroke-opacity="1.000000" stroke-width="2.000000" stroke-linejoin="round" stroke-linecap="round"/>
	</g>
	<path id="Поиск" d="M48.51 12.57L48.51 24L50.24 24L50.24 14.06L55.51 14.06L55.51 24L57.22 24L57.22 12.57L48.51 12.57ZM66.66 22.9Q67.68 21.74 67.68 19.67Q67.68 18.23 67.16 17.25C66.81 16.58 66.34 16.08 65.74 15.73Q65.68 15.7 65.63 15.68Q64.77 15.21 63.65 15.21Q62.22 15.21 61.24 15.88Q60.94 16.09 60.67 16.37Q60.65 16.39 60.64 16.41Q59.59 17.57 59.59 19.67Q59.59 21.1 60.11 22.1Q60.49 22.84 61.09 23.32Q61.29 23.49 61.53 23.63C62.13 23.98 62.82 24.16 63.6 24.16Q64.98 24.16 65.94 23.53Q66.29 23.3 66.58 22.99Q66.62 22.94 66.66 22.9ZM81.6 23.51Q82.56 24.16 83.96 24.16C84.48 24.16 84.92 24.11 85.28 24.03Q85.79 23.91 86.23 23.66Q86.26 23.64 86.29 23.63L86.29 22.16C85.98 22.32 85.64 22.46 85.27 22.57C84.91 22.68 84.48 22.73 84 22.73Q83.23 22.73 82.71 22.36Q82.48 22.2 82.3 21.96C81.92 21.45 81.73 20.7 81.73 19.72C81.73 17.67 82.51 16.65 84.07 16.65C84.36 16.65 84.68 16.69 85.02 16.78C85.35 16.86 85.67 16.97 85.97 17.08L86.48 15.71C86.2 15.58 85.85 15.46 85.43 15.36Q84.8 15.21 84.08 15.21C83.29 15.21 82.59 15.37 81.97 15.68Q81.7 15.82 81.47 16Q80.89 16.44 80.51 17.15C80.16 17.81 79.99 18.67 79.99 19.74C79.99 21.26 80.35 22.38 81.07 23.09Q81.32 23.33 81.6 23.51ZM71.42 20.76C71.44 20.48 71.44 20.25 71.44 20.07L71.44 15.37L69.83 15.37L69.83 24L71.91 24L76.31 17.13C76.3 17.28 76.28 17.5 76.26 17.78C76.25 18.06 76.24 18.35 76.23 18.65C76.22 18.95 76.21 19.2 76.21 19.4L76.21 24L77.81 24L77.81 15.37L75.75 15.37L71.32 22.25C71.34 22.11 71.35 21.9 71.37 21.62Q71.39 21.19 71.42 20.76ZM95.44 15.37L93.59 15.37L90.02 19.56L90.02 15.37L88.32 15.37L88.32 24L90.02 24L90.02 19.63L93.8 24L95.75 24L91.84 19.51L95.44 15.37ZM61.88 21.95C61.51 21.4 61.33 20.65 61.33 19.67Q61.33 18.2 61.87 17.41C62.24 16.88 62.82 16.62 63.62 16.62Q64.5 16.62 65.04 17.05Q65.23 17.21 65.38 17.41Q65.94 18.2 65.94 19.67Q65.94 21.13 65.38 21.95C65.02 22.49 64.43 22.76 63.63 22.76Q62.78 22.76 62.25 22.35Q62.04 22.18 61.88 21.95Z" fill="#838688" fill-opacity="1.000000" fill-rule="evenodd"/>
</svg>
