<svg width="64" height="64" viewBox="0 0 64 64" fill="none" xmlns="http://www.w3.org/2000/svg">
<path d="M32.5901 11.4103L32.5897 11.4099C32.4339 11.255 32.2231 11.168 32.0034 11.168C31.7836 11.168 31.5729 11.255 31.417 11.4098L31.4167 11.4102L21.4167 21.4102L21.4163 21.4098L21.408 21.4195C21.2718 21.5786 21.2006 21.7833 21.2087 21.9926C21.2168 22.2019 21.3035 22.4005 21.4516 22.5486C21.5998 22.6967 21.7983 22.7835 22.0076 22.7916C22.2169 22.7996 22.4216 22.7284 22.5807 22.5922L22.581 22.5926L22.59 22.5835L32 13.1736L41.41 22.5902L41.4096 22.5905L41.4194 22.5989C41.5785 22.7351 41.7831 22.8063 41.9924 22.7982C42.2017 22.7901 42.4003 22.7034 42.5484 22.5553C42.6965 22.4071 42.7833 22.2086 42.7914 21.9993C42.7995 21.79 42.7283 21.5853 42.592 21.4262L42.5924 21.4259L42.5834 21.4169L32.5901 11.4103Z" fill="#BFCBD6" stroke="#BFCBD6" stroke-width="0.33"/>
<path d="M38.5017 31.1682H36.3333C35.8722 31.1682 35.4983 30.7943 35.4983 30.3332V25.6665C35.4983 25.0231 34.9767 24.5015 34.3333 24.5015H29.6667C29.0233 24.5015 28.5017 25.0231 28.5017 25.6665V30.3332C28.5017 30.7943 28.1278 31.1682 27.6667 31.1682H25.4983V23.6093C25.4983 22.8684 24.6025 22.4973 24.0786 23.0212C23.9226 23.1772 23.835 23.3887 23.835 23.6093V31.3332C23.835 31.7306 23.9929 32.1117 24.2739 32.3927C24.5548 32.6737 24.936 32.8315 25.3333 32.8315H29C29.6434 32.8315 30.165 32.3099 30.165 31.6665V26.9998C30.165 26.5387 30.5388 26.1648 31 26.1648H33C33.4612 26.1648 33.835 26.5387 33.835 26.9998V31.6665C33.835 32.3099 34.3566 32.8315 35 32.8315H38.6667C39.064 32.8315 39.4452 32.6737 39.7261 32.3927C40.0071 32.1117 40.165 31.7306 40.165 31.3332V23.4493C40.165 23.2287 40.0774 23.0172 39.9214 22.8612C39.3975 22.3373 38.5017 22.7084 38.5017 23.4493V31.1682Z" fill="#BFCBD6" stroke="#BFCBD6" stroke-width="0.33"/>
<path d="M10.9202 43.017C11.5442 43.017 12.1726 43.0213 12.8052 43.03C13.4466 43.0387 14.0576 43.0647 14.6382 43.108L14.5862 43.992H11.2972C10.9939 43.992 10.7686 44.0657 10.6212 44.213C10.4826 44.3517 10.4132 44.5857 10.4132 44.915V52H9.28225V44.707C9.28225 44.2043 9.43391 43.797 9.73725 43.485C10.0492 43.173 10.4436 43.017 10.9202 43.017ZM18.62 45.669V52H17.515V46.54H16.137C15.8683 46.54 15.6733 46.6007 15.552 46.722C15.4393 46.8347 15.3613 47.0383 15.318 47.333C15.2487 47.905 15.1707 48.4943 15.084 49.101C14.9973 49.699 14.8717 50.219 14.707 50.661C14.3863 51.5883 13.7233 52.0563 12.718 52.065L12.601 51.22C12.9563 51.1333 13.2077 51.0207 13.355 50.882C13.511 50.7433 13.6323 50.5613 13.719 50.336C13.8317 50.0587 13.9227 49.7293 13.992 49.348C14.0613 48.9667 14.1177 48.581 14.161 48.191C14.213 47.7923 14.252 47.4457 14.278 47.151C14.3387 46.6657 14.4947 46.2973 14.746 46.046C15.006 45.7947 15.4003 45.669 15.929 45.669H18.62ZM23.6838 45.513C24.3858 45.513 24.9188 45.6603 25.2828 45.955C25.6555 46.241 25.8418 46.7697 25.8418 47.541V52H24.9708L24.8408 50.96C24.6761 51.1247 24.4638 51.298 24.2038 51.48C23.9438 51.6533 23.6448 51.805 23.3068 51.935C22.9775 52.0563 22.6178 52.117 22.2278 52.117C21.6645 52.117 21.2095 51.9653 20.8628 51.662C20.5161 51.3587 20.3428 50.921 20.3428 50.349V49.66C20.3428 49.166 20.4945 48.7847 20.7978 48.516C21.1098 48.2387 21.5431 48.1 22.0978 48.1H24.7368V47.541C24.7281 47.151 24.6371 46.8737 24.4638 46.709C24.2905 46.5357 23.9525 46.449 23.4498 46.449C23.1118 46.449 22.6915 46.4663 22.1888 46.501C21.6948 46.5357 21.2051 46.5747 20.7198 46.618L20.6158 45.799C21.0578 45.7297 21.5605 45.6647 22.1238 45.604C22.6871 45.5433 23.2071 45.513 23.6838 45.513ZM22.4488 51.168C22.7608 51.1767 23.1248 51.103 23.5408 50.947C23.9655 50.7823 24.3641 50.5353 24.7368 50.206V48.932L22.2928 48.945C21.9895 48.9537 21.7728 49.036 21.6428 49.192C21.5215 49.3393 21.4608 49.5473 21.4608 49.816V50.219C21.4608 50.5483 21.5388 50.791 21.6948 50.947C21.8595 51.0943 22.1108 51.168 22.4488 51.168ZM30.4277 45.604C31.0863 45.604 31.6063 45.6517 31.9877 45.747C32.3777 45.8423 32.6593 46.0113 32.8327 46.254C33.006 46.4967 33.0927 46.8433 33.0927 47.294C33.0927 47.7447 32.9843 48.087 32.7677 48.321C32.5597 48.5463 32.213 48.6807 31.7277 48.724V48.763C32.317 48.8063 32.7287 48.971 32.9627 49.257C33.1967 49.5343 33.3137 49.9287 33.3137 50.44C33.3137 50.8733 33.227 51.2113 33.0537 51.454C32.889 51.688 32.6203 51.8527 32.2477 51.948C31.8837 52.0433 31.394 52.091 30.7787 52.091C30.3367 52.091 29.951 52.0867 29.6217 52.078C29.2923 52.078 28.989 52.0693 28.7117 52.052C28.443 52.0433 28.157 52.0303 27.8537 52.013V45.682C28.1223 45.656 28.378 45.6387 28.6207 45.63C28.8633 45.6213 29.1277 45.617 29.4137 45.617C29.6997 45.6083 30.0377 45.604 30.4277 45.604ZM30.3887 46.475C30.094 46.475 29.821 46.475 29.5697 46.475C29.3183 46.4663 29.093 46.4663 28.8937 46.475V48.347H30.5577C31.1037 48.347 31.485 48.282 31.7017 48.152C31.927 48.022 32.0397 47.7663 32.0397 47.385C32.0397 47.021 31.9183 46.7783 31.6757 46.657C31.433 46.5357 31.004 46.475 30.3887 46.475ZM30.5577 49.14H28.8937V51.207C29.1277 51.2157 29.3877 51.22 29.6737 51.22C29.9683 51.22 30.2847 51.22 30.6227 51.22C31.212 51.22 31.6237 51.155 31.8577 51.025C32.0917 50.8863 32.2087 50.6133 32.2087 50.206C32.2087 49.7987 32.0873 49.5213 31.8447 49.374C31.602 49.218 31.173 49.14 30.5577 49.14ZM36.1439 45.669V48.217H39.4719V45.669H40.5639V52H39.4719V49.062H36.1439V52H35.0519V45.669H36.1439ZM45.6213 45.513C46.3233 45.513 46.8563 45.6603 47.2203 45.955C47.593 46.241 47.7793 46.7697 47.7793 47.541V52H46.9083L46.7783 50.96C46.6136 51.1247 46.4013 51.298 46.1413 51.48C45.8813 51.6533 45.5823 51.805 45.2443 51.935C44.915 52.0563 44.5553 52.117 44.1653 52.117C43.602 52.117 43.147 51.9653 42.8003 51.662C42.4536 51.3587 42.2803 50.921 42.2803 50.349V49.66C42.2803 49.166 42.432 48.7847 42.7353 48.516C43.0473 48.2387 43.4806 48.1 44.0353 48.1H46.6743V47.541C46.6656 47.151 46.5746 46.8737 46.4013 46.709C46.228 46.5357 45.89 46.449 45.3873 46.449C45.0493 46.449 44.629 46.4663 44.1263 46.501C43.6323 46.5357 43.1426 46.5747 42.6573 46.618L42.5533 45.799C42.9953 45.7297 43.498 45.6647 44.0613 45.604C44.6246 45.5433 45.1446 45.513 45.6213 45.513ZM44.3863 51.168C44.6983 51.1767 45.0623 51.103 45.4783 50.947C45.903 50.7823 46.3016 50.5353 46.6743 50.206V48.932L44.2303 48.945C43.927 48.9537 43.7103 49.036 43.5803 49.192C43.459 49.3393 43.3983 49.5473 43.3983 49.816V50.219C43.3983 50.5483 43.4763 50.791 43.6323 50.947C43.797 51.0943 44.0483 51.168 44.3863 51.168ZM52.0012 45.604C52.4778 45.604 52.8722 45.6083 53.1842 45.617C53.4962 45.617 53.7735 45.6257 54.0162 45.643C54.2675 45.6517 54.5275 45.669 54.7962 45.695V52H53.7172V49.66C53.5005 49.66 53.2492 49.66 52.9632 49.66C52.6858 49.66 52.3695 49.66 52.0142 49.66C51.3988 49.66 51.0305 49.8767 50.9092 50.31L50.4282 52H49.2842L49.8562 50.102C49.9428 49.8247 50.1075 49.6297 50.3502 49.517C50.6015 49.3957 50.8485 49.322 51.0912 49.296V49.244C50.5625 49.1747 50.1898 48.9883 49.9732 48.685C49.7565 48.3817 49.6482 47.9787 49.6482 47.476C49.6482 47.0773 49.7175 46.7393 49.8562 46.462C49.9948 46.1847 50.2332 45.9723 50.5712 45.825C50.9178 45.6777 51.3945 45.604 52.0012 45.604ZM52.0662 48.828H53.7172V46.501C53.4918 46.4923 53.2362 46.488 52.9502 46.488C52.6642 46.488 52.3565 46.488 52.0272 46.488C51.4985 46.488 51.1475 46.579 50.9742 46.761C50.8095 46.9343 50.7272 47.2247 50.7272 47.632C50.7272 48.0567 50.8138 48.3643 50.9872 48.555C51.1692 48.737 51.5288 48.828 52.0662 48.828Z" fill="#BFCBD6"/>
</svg>
